<svg xmlns="http://www.w3.org/2000/svg" viewBox="0 0 118.47 66.78"><path d="M36.17,7.08h4.62l-7.5,37.38a3.28,3.28,0,0,0-.12.72v.42q0,1.08,1,1.08a2.19,2.19,0,0,0,.36,0q.18,0,.6-.15L35.21,50A6.53,6.53,0,0,1,34,50.4a9.25,9.25,0,0,1-1.62.12,3.94,3.94,0,0,1-2.91-1,3.77,3.77,0,0,1-1-2.79,11.78,11.78,0,0,1,.36-2.52Z"/><path d="M43.31,42.72a11.26,11.26,0,0,0,3.3,3.09A7.92,7.92,0,0,0,50.81,47a7.1,7.1,0,0,0,2.37-.39,7.2,7.2,0,0,0,2-1.05A4.88,4.88,0,0,0,56.51,44,3.85,3.85,0,0,0,57,42.12a3.77,3.77,0,0,0-.27-1.44,4.19,4.19,0,0,0-.87-1.29A8.61,8.61,0,0,0,54.2,38.1q-1.05-.66-2.55-1.5a19.08,19.08,0,0,1-5-3.66A6.23,6.23,0,0,1,45,28.62a7.8,7.8,0,0,1,.81-3.54A8.61,8.61,0,0,1,48,22.32a9.83,9.83,0,0,1,3.18-1.77A11.81,11.81,0,0,1,55,19.92,10.53,10.53,0,0,1,59.84,21a13.3,13.3,0,0,1,3.75,2.82L61,26.4a13,13,0,0,0-2.64-2,6.67,6.67,0,0,0-3.42-.84A5.86,5.86,0,0,0,51,24.87a4.09,4.09,0,0,0-1.59,3.21,3.16,3.16,0,0,0,.42,1.62A5,5,0,0,0,50.93,31a11.93,11.93,0,0,0,1.65,1.14q.93.54,2,1.08a25.43,25.43,0,0,1,3.27,2.07,12.64,12.64,0,0,1,2.1,2,6.22,6.22,0,0,1,1.14,2,7.18,7.18,0,0,1,.33,2.22,8.45,8.45,0,0,1-.81,3.72,8.09,8.09,0,0,1-2.28,2.85,10.63,10.63,0,0,1-3.48,1.8,14.47,14.47,0,0,1-4.35.63,10.56,10.56,0,0,1-2.91-.42,13.33,13.33,0,0,1-2.82-1.17,12.82,12.82,0,0,1-2.46-1.77A10.72,10.72,0,0,1,40.43,45Z"/><path d="M70.61,52.56,68.75,62.1H64.19l8.28-41.46h3.78l-.36,3.84h.18a27.29,27.29,0,0,1,4.77-3.21,11.2,11.2,0,0,1,5.31-1.35,7.56,7.56,0,0,1,6.12,2.73q2.28,2.73,2.28,7.83a23,23,0,0,1-1.32,7.86,21.66,21.66,0,0,1-3.51,6.36,17,17,0,0,1-5,4.26,12,12,0,0,1-5.85,1.56,7.32,7.32,0,0,1-4.08-1.17,9.46,9.46,0,0,1-2.94-3h-.12Zm13.86-28.8A9.82,9.82,0,0,0,80,25a16.52,16.52,0,0,0-4.53,3.54L72.71,42.48a8.33,8.33,0,0,0,2.7,3.24,5.9,5.9,0,0,0,3.24,1,7.76,7.76,0,0,0,4.2-1.29,12.69,12.69,0,0,0,3.57-3.45A18.77,18.77,0,0,0,88.88,37a18.38,18.38,0,0,0,.93-5.85,9,9,0,0,0-1.41-5.55A4.68,4.68,0,0,0,84.47,23.76Z"/><path d="M17.84,5C16.5,5.84,4,14.21,3.06,29.94A32.26,32.26,0,0,0,17.84,58.8" fill="none" stroke="#93da52" stroke-linecap="round" stroke-miterlimit="10" stroke-width="6"/><path d="M100.63,5c1.35.87,13.83,9.24,14.79,25A32.29,32.29,0,0,1,100.63,58.8" fill="none" stroke="#91b6fb" stroke-linecap="round" stroke-miterlimit="10" stroke-width="6"/></svg>